<svg aria-hidden="true" style="position: absolute; width: 0; height: 0; overflow: hidden;" version="1.1" xmlns="http://www.w3.org/2000/svg" xmlns:xlink="http://www.w3.org/1999/xlink">
<defs>
<symbol id="button_setings" viewBox="0 0 32 32">
<path d="M11.077 4.513c-0.435 0-0.853 0.173-1.16 0.481s-0.481 0.725-0.481 1.16c0 0.435 0.173 0.853 0.481 1.16s0.725 0.481 1.16 0.481c0.435 0 0.853-0.173 1.16-0.481s0.481-0.725 0.481-1.16c0-0.435-0.173-0.853-0.481-1.16s-0.725-0.481-1.16-0.481zM6.433 4.513c0.339-0.961 0.968-1.793 1.8-2.381s1.826-0.905 2.845-0.905c1.019 0 2.013 0.316 2.845 0.905s1.46 1.421 1.8 2.381h11.766c0.435 0 0.853 0.173 1.16 0.481s0.481 0.725 0.481 1.16-0.173 0.853-0.481 1.16c-0.308 0.308-0.725 0.481-1.16 0.481h-11.766c-0.339 0.961-0.968 1.793-1.8 2.381s-1.826 0.905-2.845 0.905-2.013-0.316-2.845-0.905c-0.832-0.589-1.46-1.421-1.8-2.381h-1.92c-0.435 0-0.853-0.173-1.16-0.481s-0.481-0.725-0.481-1.16c0-0.435 0.173-0.853 0.481-1.16s0.725-0.481 1.16-0.481h1.92zM20.923 14.359c-0.435 0-0.853 0.173-1.16 0.481s-0.481 0.725-0.481 1.16 0.173 0.853 0.481 1.16c0.308 0.308 0.725 0.481 1.16 0.481s0.853-0.173 1.16-0.481c0.308-0.308 0.481-0.725 0.481-1.16s-0.173-0.853-0.481-1.16c-0.308-0.308-0.725-0.481-1.16-0.481zM16.279 14.359c0.339-0.961 0.968-1.793 1.8-2.382s1.826-0.905 2.845-0.905c1.019 0 2.013 0.316 2.845 0.905s1.46 1.421 1.8 2.381h1.92c0.435 0 0.853 0.173 1.16 0.481s0.481 0.725 0.481 1.16-0.173 0.853-0.481 1.16c-0.308 0.308-0.725 0.481-1.16 0.481h-1.92c-0.339 0.961-0.968 1.793-1.8 2.382s-1.826 0.905-2.845 0.905c-1.019 0-2.013-0.316-2.845-0.905s-1.461-1.421-1.8-2.382h-11.766c-0.435 0-0.853-0.173-1.16-0.481s-0.481-0.725-0.481-1.16 0.173-0.853 0.481-1.16c0.308-0.308 0.725-0.481 1.16-0.481h11.766zM11.077 24.205c-0.435 0-0.853 0.173-1.16 0.481s-0.481 0.725-0.481 1.16 0.173 0.853 0.481 1.16c0.308 0.308 0.725 0.481 1.16 0.481s0.853-0.173 1.16-0.481c0.308-0.308 0.481-0.725 0.481-1.16s-0.173-0.853-0.481-1.16c-0.308-0.308-0.725-0.481-1.16-0.481zM6.433 24.205c0.339-0.961 0.968-1.793 1.8-2.382s1.826-0.905 2.845-0.905c1.019 0 2.013 0.316 2.845 0.905s1.46 1.421 1.8 2.382h11.766c0.435 0 0.853 0.173 1.16 0.481s0.481 0.725 0.481 1.16-0.173 0.853-0.481 1.16c-0.308 0.308-0.725 0.481-1.16 0.481h-11.766c-0.339 0.961-0.968 1.793-1.8 2.382s-1.826 0.905-2.845 0.905-2.013-0.316-2.845-0.905c-0.832-0.589-1.46-1.421-1.8-2.382h-1.92c-0.435 0-0.853-0.173-1.16-0.481s-0.481-0.725-0.481-1.16 0.173-0.853 0.481-1.16c0.308-0.308 0.725-0.481 1.16-0.481h1.92z"></path>
</symbol>
</defs>
</svg>
